<svg width="0" height="0" class="hidden">
  <symbol  xmlns="http://www.w3.org/2000/svg" viewBox="0 0 22 22" id="comment">
    <path d="M9.75013 11C9.75013 11.2984 9.86866 11.5845 10.0796 11.7955C10.2906 12.0065 10.5768 12.125 10.8751 12.125C11.1735 12.125 11.4596 12.0065 11.6706 11.7955C11.8816 11.5845 12.0001 11.2984 12.0001 11C12.0001 10.7016 11.8816 10.4155 11.6706 10.2045C11.4596 9.99353 11.1735 9.875 10.8751 9.875C10.5768 9.875 10.2906 9.99353 10.0796 10.2045C9.86866 10.4155 9.75013 10.7016 9.75013 11ZM14.4376 11C14.4376 11.2984 14.5562 11.5845 14.7671 11.7955C14.9781 12.0065 15.2643 12.125 15.5626 12.125C15.861 12.125 16.1471 12.0065 16.3581 11.7955C16.5691 11.5845 16.6876 11.2984 16.6876 11C16.6876 10.7016 16.5691 10.4155 16.3581 10.2045C16.1471 9.99353 15.861 9.875 15.5626 9.875C15.2643 9.875 14.9781 9.99353 14.7671 10.2045C14.5562 10.4155 14.4376 10.7016 14.4376 11ZM5.06263 11C5.06263 11.2984 5.18116 11.5845 5.39214 11.7955C5.60312 12.0065 5.88926 12.125 6.18763 12.125C6.486 12.125 6.77215 12.0065 6.98313 11.7955C7.19411 11.5845 7.31263 11.2984 7.31263 11C7.31263 10.7016 7.19411 10.4155 6.98313 10.2045C6.77215 9.99353 6.486 9.875 6.18763 9.875C5.88926 9.875 5.60312 9.99353 5.39214 10.2045C5.18116 10.4155 5.06263 10.7016 5.06263 11ZM20.5595 6.93125C20.0298 5.67266 19.2704 4.54297 18.3025 3.57266C17.3413 2.60796 16.2002 1.84114 14.9439 1.31563C13.6548 0.774219 12.2861 0.5 10.8751 0.5H10.8283C9.40795 0.507031 8.03216 0.788281 6.73841 1.34141C5.49285 1.87232 4.36247 2.64049 3.41029 3.60312C2.4517 4.57109 1.69935 5.69609 1.17904 6.95C0.639977 8.24844 0.368102 9.62891 0.375133 11.0492C0.383086 12.6769 0.768161 14.2806 1.50013 15.7344V19.2969C1.50013 19.5828 1.61372 19.857 1.81591 20.0592C2.0181 20.2614 2.29232 20.375 2.57826 20.375H6.1431C7.59692 21.107 9.20059 21.492 10.8283 21.5H10.8775C12.2814 21.5 13.6431 21.2281 14.9251 20.6961C16.1751 20.1768 17.3119 19.419 18.272 18.4648C19.24 17.5063 20.0017 16.3859 20.5337 15.1367C21.0869 13.843 21.3681 12.4672 21.3751 11.0469C21.3822 9.61953 21.1056 8.23438 20.5595 6.93125ZM17.0181 17.1969C15.3751 18.8234 13.1954 19.7188 10.8751 19.7188H10.8353C9.42201 19.7117 8.0181 19.3602 6.77826 18.6992L6.58138 18.5938H3.28138V15.2938L3.17591 15.0969C2.51498 13.857 2.16341 12.4531 2.15638 11.0398C2.14701 8.70312 3.03998 6.50937 4.67826 4.85703C6.3142 3.20469 8.50091 2.29062 10.8376 2.28125H10.8775C12.0494 2.28125 13.1861 2.50859 14.2572 2.95859C15.3025 3.39687 16.24 4.02734 17.0462 4.83359C17.8501 5.6375 18.4829 6.57734 18.9212 7.62266C19.3759 8.70547 19.6033 9.85391 19.5986 11.0398C19.5845 13.3742 18.6681 15.5609 17.0181 17.1969Z" ></path>
  </symbol>
  <symbol  xmlns="http://www.w3.org/2000/svg" viewBox="0 0 19 20" id="likes">
    <path d="M18.1383 10.5094C18.532 9.98909 18.75 9.35159 18.75 8.6883C18.75 7.63596 18.1617 6.63987 17.2148 6.0844C16.9711 5.94142 16.6935 5.86617 16.4109 5.86643H10.7906L10.9313 2.98596C10.9641 2.28987 10.718 1.62893 10.2398 1.12502C10.0052 0.876652 9.72212 0.679038 9.40808 0.544395C9.09405 0.409752 8.75574 0.34094 8.41406 0.342211C7.19531 0.342211 6.11719 1.16252 5.79375 2.33674L3.78047 9.62581H0.75C0.335156 9.62581 0 9.96096 0 10.3758V18.9071C0 19.3219 0.335156 19.6571 0.75 19.6571H14.843C15.0586 19.6571 15.2695 19.6149 15.4641 19.5305C16.5797 19.0547 17.2992 17.9649 17.2992 16.7555C17.2992 16.4602 17.257 16.1696 17.1727 15.8883C17.5664 15.368 17.7844 14.7305 17.7844 14.0672C17.7844 13.7719 17.7422 13.4813 17.6578 13.2C18.0516 12.6797 18.2695 12.0422 18.2695 11.3789C18.2648 11.0836 18.2227 10.7906 18.1383 10.5094ZM1.6875 17.9696V11.3133H3.58594V17.9696H1.6875ZM16.6031 9.69612L16.0898 10.1414L16.4156 10.7367C16.523 10.9328 16.5786 11.153 16.5773 11.3766C16.5773 11.7633 16.4086 12.1313 16.118 12.3844L15.6047 12.8297L15.9305 13.425C16.0378 13.6211 16.0935 13.8413 16.0922 14.0649C16.0922 14.4516 15.9234 14.8196 15.6328 15.0727L15.1195 15.518L15.4453 16.1133C15.5526 16.3094 15.6083 16.5296 15.607 16.7531C15.607 17.2781 15.2977 17.7516 14.8195 17.9672H5.08594V11.2383L7.41797 2.78909C7.4781 2.57252 7.60719 2.38147 7.78566 2.24486C7.96414 2.10825 8.18228 2.03354 8.40703 2.03205C8.58516 2.03205 8.76094 2.08362 8.90156 2.18909C9.13359 2.36252 9.25781 2.62502 9.24375 2.90393L9.01875 7.55393H16.3875C16.8047 7.8094 17.0625 8.24065 17.0625 8.6883C17.0625 9.07502 16.8938 9.44065 16.6031 9.69612Z"></path>
  </symbol>
  <symbol  xmlns="http://www.w3.org/2000/svg" viewBox="0 0 20 20" id="save">
    <path d="M19.1867 4.87422L15.3757 1.06328C15.1999 0.8875 14.9843 0.758594 14.7499 0.688281V0.625H1.62494C1.2101 0.625 0.874939 0.960156 0.874939 1.375V18.625C0.874939 19.0398 1.2101 19.375 1.62494 19.375H18.8749C19.2898 19.375 19.6249 19.0398 19.6249 18.625V5.93359C19.6249 5.53516 19.4679 5.15547 19.1867 4.87422ZM7.24994 2.3125H13.2499V4.75H7.24994V2.3125ZM17.9374 17.6875H2.56244V2.3125H5.74994V5.5C5.74994 5.91484 6.0851 6.25 6.49994 6.25H13.9999C14.4148 6.25 14.7499 5.91484 14.7499 5.5V2.82344L17.9374 6.01094V17.6875ZM10.2499 8.35938C8.38666 8.35938 6.87494 9.87109 6.87494 11.7344C6.87494 13.5977 8.38666 15.1094 10.2499 15.1094C12.1132 15.1094 13.6249 13.5977 13.6249 11.7344C13.6249 9.87109 12.1132 8.35938 10.2499 8.35938ZM10.2499 13.6094C9.214 13.6094 8.37494 12.7703 8.37494 11.7344C8.37494 10.6984 9.214 9.85938 10.2499 9.85938C11.2859 9.85938 12.1249 10.6984 12.1249 11.7344C12.1249 12.7703 11.2859 13.6094 10.2499 13.6094Z"></path>
  </symbol>
  <symbol  xmlns="http://www.w3.org/2000/svg" viewBox="0 0 18 20" id="share">
    <path d="M14.6874 13.5625C14.0195 13.5625 13.4031 13.7969 12.9203 14.1883L8.064 10.675C8.14532 10.2287 8.14532 9.77133 8.064 9.325L12.9203 5.81172C13.4031 6.20312 14.0195 6.4375 14.6874 6.4375C16.239 6.4375 17.4999 5.17656 17.4999 3.625C17.4999 2.07344 16.239 0.8125 14.6874 0.8125C13.1359 0.8125 11.8749 2.07344 11.8749 3.625C11.8749 3.89688 11.9124 4.15703 11.9851 4.40547L7.3726 7.74531C6.68822 6.83828 5.60072 6.25 4.37494 6.25C2.30306 6.25 0.624939 7.92812 0.624939 10C0.624939 12.0719 2.30306 13.75 4.37494 13.75C5.60072 13.75 6.68822 13.1617 7.3726 12.2547L11.9851 15.5945C11.9124 15.843 11.8749 16.1055 11.8749 16.375C11.8749 17.9266 13.1359 19.1875 14.6874 19.1875C16.239 19.1875 17.4999 17.9266 17.4999 16.375C17.4999 14.8234 16.239 13.5625 14.6874 13.5625ZM14.6874 2.40625C15.3601 2.40625 15.9062 2.95234 15.9062 3.625C15.9062 4.29766 15.3601 4.84375 14.6874 4.84375C14.0148 4.84375 13.4687 4.29766 13.4687 3.625C13.4687 2.95234 14.0148 2.40625 14.6874 2.40625ZM4.37494 12.0625C3.23822 12.0625 2.31244 11.1367 2.31244 10C2.31244 8.86328 3.23822 7.9375 4.37494 7.9375C5.51166 7.9375 6.43744 8.86328 6.43744 10C6.43744 11.1367 5.51166 12.0625 4.37494 12.0625ZM14.6874 17.5938C14.0148 17.5938 13.4687 17.0477 13.4687 16.375C13.4687 15.7023 14.0148 15.1562 14.6874 15.1562C15.3601 15.1562 15.9062 15.7023 15.9062 16.375C15.9062 17.0477 15.3601 17.5938 14.6874 17.5938Z"></path>
  </symbol>
  <symbol xmlns="http://www.w3.org/2000/svg" viewBox="0 0 22 22" id="exit">
    <path d="M15.5371 1.92734C15.5084 1.91289 15.4765 1.90604 15.4444 1.90747C15.4123 1.90889 15.3811 1.91854 15.3538 1.93548C15.3265 1.95242 15.304 1.97608 15.2885 2.00421C15.273 2.03233 15.265 2.06397 15.2652 2.09609V3.60078C15.2652 3.72969 15.3332 3.84922 15.441 3.91953C15.9695 4.2522 16.4586 4.64376 16.8988 5.08672C17.6652 5.85547 18.2675 6.74844 18.6871 7.74219C19.1209 8.77093 19.3433 9.87648 19.341 10.993C19.341 12.1203 19.1207 13.2148 18.6871 14.2438C18.268 15.2361 17.6607 16.1378 16.8988 16.8992C16.1394 17.6631 15.2381 18.2713 14.2457 18.6898C13.2191 19.1258 12.1246 19.3461 10.9996 19.3461C9.87457 19.3461 8.78004 19.1258 7.75347 18.6898C6.76099 18.2713 5.85975 17.6631 5.10035 16.8992C4.3384 16.1378 3.73112 15.2361 3.31207 14.2438C2.8782 13.215 2.65581 12.1095 2.65816 10.993C2.65816 9.86563 2.87847 8.77109 3.31207 7.74219C3.7316 6.74844 4.33394 5.85547 5.10035 5.08672C5.54566 4.64141 6.03316 4.25234 6.55816 3.91953C6.66832 3.85156 6.73394 3.72969 6.73394 3.60078V2.09375C6.73394 1.95312 6.58629 1.86406 6.46207 1.925C3.18316 3.575 0.921443 6.95234 0.874568 10.8664C0.808943 16.4633 5.38629 21.1133 10.9808 21.125C16.5824 21.1367 21.1246 16.5945 21.1246 10.9906C21.1246 7.025 18.8511 3.59141 15.5371 1.92734ZM10.2496 12.125H11.7496C11.8527 12.125 11.9371 12.0406 11.9371 11.9375V1.0625C11.9371 0.959375 11.8527 0.875 11.7496 0.875H10.2496C10.1464 0.875 10.0621 0.959375 10.0621 1.0625V11.9375C10.0621 12.0406 10.1464 12.125 10.2496 12.125Z"></path>
  </symbol>

  <symbol xmlns="http://www.w3.org/2000/svg" viewBox="0 0 11 14" id="fire">
    <path d="M10.5328 6.32654C10.2295 5.64382 9.78851 5.03104 9.2375 4.52654L8.78281 4.10936C8.76737 4.09558 8.74879 4.0858 8.72869 4.08088C8.7086 4.07597 8.6876 4.07606 8.66754 4.08115C8.64749 4.08624 8.62899 4.09617 8.61367 4.11008C8.59835 4.12399 8.58668 4.14145 8.57969 4.16092L8.37656 4.74373C8.25 5.10936 8.01719 5.48279 7.6875 5.84998C7.66563 5.87342 7.64063 5.87967 7.62344 5.88123C7.60625 5.88279 7.57969 5.87967 7.55625 5.85779C7.53437 5.83904 7.52344 5.81092 7.525 5.78279C7.58281 4.84217 7.30156 3.78123 6.68594 2.62654C6.17656 1.66717 5.46875 0.918731 4.58437 0.396856L3.93906 0.017169C3.85469 -0.032831 3.74688 0.0327939 3.75156 0.131231L3.78594 0.881231C3.80937 1.39373 3.75 1.84686 3.60938 2.22342C3.4375 2.68436 3.19063 3.11248 2.875 3.49686C2.65535 3.76399 2.40639 4.0056 2.13281 4.21717C1.47391 4.72368 0.938146 5.37269 0.565625 6.11561C0.194022 6.865 0.000453376 7.69007 0 8.52654C0 9.26404 0.145312 9.97811 0.432812 10.6515C0.710416 11.2999 1.11103 11.8884 1.6125 12.3844C2.11875 12.8844 2.70625 13.2781 3.36094 13.5515C4.03906 13.8359 4.75781 13.9797 5.5 13.9797C6.24219 13.9797 6.96094 13.8359 7.63906 13.5531C8.29214 13.2813 8.88601 12.8848 9.3875 12.3859C9.89375 11.8859 10.2906 11.3015 10.5672 10.6531C10.8543 9.98151 11.0015 9.25848 11 8.52811C11 7.76561 10.8437 7.02498 10.5328 6.32654V6.32654ZM8.64062 11.6281C7.80156 12.4594 6.6875 12.9156 5.5 12.9156C4.3125 12.9156 3.19844 12.4594 2.35938 11.6281C1.52344 10.7984 1.0625 9.69842 1.0625 8.52811C1.0625 7.84842 1.21563 7.19686 1.51719 6.59061C1.81094 5.99842 2.24844 5.46873 2.77969 5.06092C3.1185 4.80185 3.4258 4.50398 3.69531 4.17342C4.08594 3.69686 4.39219 3.16561 4.60469 2.59529C4.69185 2.36004 4.75519 2.11663 4.79375 1.86873C5.17031 2.21561 5.48594 2.63436 5.75 3.12498C6.27188 4.10311 6.5125 4.97342 6.46562 5.71404C6.45443 5.88848 6.48291 6.06318 6.54895 6.22501C6.61498 6.38685 6.71684 6.53161 6.84688 6.64842C6.95956 6.75021 7.09135 6.8286 7.23458 6.87902C7.37782 6.92945 7.52965 6.95092 7.68125 6.94217C7.98906 6.92654 8.27187 6.79061 8.47812 6.56092C8.68594 6.32811 8.86562 6.09061 9.01562 5.84842C9.23438 6.12811 9.41719 6.43279 9.5625 6.76092C9.81094 7.32029 9.9375 7.91561 9.9375 8.52811C9.9375 9.69842 9.47656 10.8 8.64062 11.6281Z"></path>
  </symbol>

  <symbol xmlns="http://www.w3.org/2000/svg" viewBox="0 0 14 12" id="video">
      <path d="M13.25 2.72344L11.25 3.875V1.5C11.25 0.948438 10.8016 0.5 10.25 0.5H1C0.448438 0.5 0 0.948438 0 1.5V10.5C0 11.0516 0.448438 11.5 1 11.5H10.25C10.8016 11.5 11.25 11.0516 11.25 10.5V8.125L13.25 9.27656C13.5828 9.46875 14 9.22812 14 8.84531V3.15625C14 2.77187 13.5828 2.53125 13.25 2.72344ZM10.125 10.375H1.125V1.625H10.125V10.375ZM12.875 7.76562L11.25 6.83125V5.17031L12.875 4.23438V7.76562ZM2.25 3.625H4C4.06875 3.625 4.125 3.56875 4.125 3.5V2.75C4.125 2.68125 4.06875 2.625 4 2.625H2.25C2.18125 2.625 2.125 2.68125 2.125 2.75V3.5C2.125 3.56875 2.18125 3.625 2.25 3.625Z"></path>
  </symbol>

  <symbol  xmlns="http://www.w3.org/2000/svg" viewBox="0 0 14 12" id="image">
    <path d="M13.5 0.5H0.5C0.223437 0.5 0 0.723437 0 1V11C0 11.2766 0.223437 11.5 0.5 11.5H13.5C13.7766 11.5 14 11.2766 14 11V1C14 0.723437 13.7766 0.5 13.5 0.5ZM12.875 10.375H1.125V9.75156L3.28906 7.18437L5.63438 9.96562L9.28281 5.64062L12.875 9.9V10.375ZM12.875 8.34688L9.37813 4.2C9.32812 4.14062 9.2375 4.14062 9.1875 4.2L5.63438 8.4125L3.38438 5.74531C3.33438 5.68594 3.24375 5.68594 3.19375 5.74531L1.125 8.19844V1.625H12.875V8.34688ZM3.75 5.125C3.93057 5.125 4.10937 5.08943 4.27619 5.02033C4.44301 4.95123 4.59459 4.84995 4.72227 4.72227C4.84995 4.59459 4.95123 4.44301 5.02033 4.27619C5.08943 4.10937 5.125 3.93057 5.125 3.75C5.125 3.56943 5.08943 3.39063 5.02033 3.22381C4.95123 3.05699 4.84995 2.90541 4.72227 2.77773C4.59459 2.65005 4.44301 2.54877 4.27619 2.47967C4.10937 2.41057 3.93057 2.375 3.75 2.375C3.38533 2.375 3.03559 2.51987 2.77773 2.77773C2.51987 3.03559 2.375 3.38533 2.375 3.75C2.375 4.11467 2.51987 4.46441 2.77773 4.72227C3.03559 4.98013 3.38533 5.125 3.75 5.125ZM3.75 3.3125C3.99219 3.3125 4.1875 3.50781 4.1875 3.75C4.1875 3.99219 3.99219 4.1875 3.75 4.1875C3.50781 4.1875 3.3125 3.99219 3.3125 3.75C3.3125 3.50781 3.50781 3.3125 3.75 3.3125Z"></path>
  </symbol>
</svg>
